<?xml version="1.0" encoding="UTF-8" standalone="no"?>
<svg
   id="svg38"
   version="1.1"
   viewBox="0 0 48 48"
   width="48"
   height="48"
   sodipodi:docname="weather-clear-wind-night.svg"
   inkscape:version="1.4 (unknown)"
   xmlns:inkscape="http://www.inkscape.org/namespaces/inkscape"
   xmlns:sodipodi="http://sodipodi.sourceforge.net/DTD/sodipodi-0.dtd"
   xmlns="http://www.w3.org/2000/svg"
   xmlns:svg="http://www.w3.org/2000/svg">
  <sodipodi:namedview
     id="namedview1"
     pagecolor="#ffffff"
     bordercolor="#000000"
     borderopacity="0.25"
     inkscape:showpageshadow="2"
     inkscape:pageopacity="0.0"
     inkscape:pagecheckerboard="0"
     inkscape:deskcolor="#d1d1d1"
     inkscape:zoom="11.416828"
     inkscape:cx="31.138246"
     inkscape:cy="18.788056"
     inkscape:window-width="1920"
     inkscape:window-height="998"
     inkscape:window-x="0"
     inkscape:window-y="0"
     inkscape:window-maximized="1"
     inkscape:current-layer="svg38" />
  <defs
     id="defs20">
    <linearGradient
       id="2-1"
       x2="0"
       y1="503.8"
       y2="542.8"
       gradientUnits="userSpaceOnUse">
      <stop
         id="stop12"
         stop-color="#b0b8b8"
         offset="0" />
      <stop
         id="stop14"
         stop-color="#909c9c"
         offset="1" />
    </linearGradient>
    <linearGradient
       id="3-3"
       x2="0"
       y1="4"
       y2="44"
       gradientUnits="userSpaceOnUse">
      <stop
         id="stop7"
         stop-color="#6f8181"
         offset="0" />
      <stop
         id="stop9-0"
         stop-color="#334545"
         offset="1" />
    </linearGradient>
  </defs>
  <path
     d="M 25.65745,6.9999999 C 18.621771,7.2480125 12.138873,11.388818 9.5847572,18.095017 6.2158722,26.92876 10.916502,36.764072 20.167347,39.978768 27.190268,42.420041 34.783466,40.331348 39.5045,35.34431 A 16.495207,15.751312 0 0 1 28.758991,35.191173 C 20.170019,32.205084 15.767383,23.106425 18.894447,14.902517 20.203278,11.46909 22.647873,8.8043476 25.65745,7.0000834 Z"
     style="color:#dedede;fill:currentColor;stroke-width:2.8994"
     class="ColorScheme-Text"
     id="path1" />
  <g
     id="layer1-1"
     stroke-width="0"
     transform="translate(1.272726,0.67316452)">
    <g
       id="g1002-3-8"
       transform="translate(1,0.011774)"
       fill="#3daee9">
      <rect
         id="rect870-6-79"
         x="18"
         y="34"
         width="22"
         height="2"
         ry="1"
         style="paint-order:normal" />
      <path
         id="path872-3-75-2"
         d="m 40.029,28.006 a 4,4 0 0 0 -1.5605,0.30469 4,4 0 0 0 -2.4688,3.6953 h 2.0117 a 1.9892,1.9892 0 0 1 1.2266,-1.8379 1.9892,1.9892 0 0 1 2.168,0.43164 1.9892,1.9892 0 0 1 0.43164,2.168 1.9892,1.9892 0 0 1 -1.8379,1.2266 v 2.0117 a 4,4 0 0 0 3.6953,-2.4688 4,4 0 0 0 -0.86719,-4.3594 4,4 0 0 0 -2.7988,-1.1719 z"
         style="paint-order:normal" />
      <path
         id="path872-3-3-5-0"
         d="m 35.999,41.018 a 4,4 0 0 0 -0.30469,-1.5605 4,4 0 0 0 -3.6953,-2.4688 v 2.0117 a 1.9892,1.9892 0 0 1 1.8379,1.2266 1.9892,1.9892 0 0 1 -0.43164,2.168 1.9892,1.9892 0 0 1 -2.168,0.43164 1.9892,1.9892 0 0 1 -1.2266,-1.8379 h -2.0117 a 4,4 0 0 0 2.4688,3.6953 4,4 0 0 0 4.3594,-0.86719 4,4 0 0 0 1.1719,-2.7988 z"
         style="paint-order:normal" />
      <path
         id="path872-3-7-2-2"
         d="m 32.029,25 a 4,4 0 0 0 -1.5605,0.30469 4,4 0 0 0 -2.4688,3.6953 h 2.0117 a 1.9892,1.9892 0 0 1 1.2266,-1.8379 1.9892,1.9892 0 0 1 2.168,0.43164 1.9892,1.9892 0 0 1 0.43164,2.168 1.9892,1.9892 0 0 1 -1.8379,1.2266 v 2.0117 a 4,4 0 0 0 3.6953,-2.4688 4,4 0 0 0 -0.86719,-4.3594 4,4 0 0 0 -2.7988,-1.1719 z"
         style="paint-order:normal" />
      <rect
         id="rect890-3"
         x="39"
         y="33.993999"
         width="1"
         height="2"
         ry="0"
         style="paint-order:normal" />
      <rect
         id="rect870-6-1-7"
         x="21"
         y="30.993999"
         width="9"
         height="2"
         ry="1"
         style="paint-order:normal" />
      <rect
         id="rect890-2-5"
         x="29"
         y="30.993999"
         width="3"
         height="2"
         ry="0"
         style="paint-order:normal" />
      <rect
         id="rect870-6-7-9"
         x="20"
         y="36.993999"
         width="11"
         height="2"
         ry="1"
         style="paint-order:normal" />
      <rect
         id="rect890-0-2"
         x="30"
         y="36.993999"
         width="2"
         height="2"
         ry="0"
         style="paint-order:normal" />
    </g>
    <path
       id="rect870-6-3-2"
       d="m 33.014,26.018 a 1.9892,1.9892 0 0 0 -0.77539,0.15039 1.9892,1.9892 0 0 0 -1.2266,1.8379 h -1.877 a 4,4 0 0 0 -0.0293,0.11914 4,4 0 0 0 -0.05078,0.24219 4,4 0 0 0 -0.01953,0.1543 4,4 0 0 0 -0.02539,0.23633 4,4 0 0 0 -0.0098,0.24805 h 2.0117 a 1.9892,1.9892 0 0 1 0.0098,-0.1875 1.9892,1.9892 0 0 1 1.2168,-1.6504 1.9892,1.9892 0 0 1 2.168,0.43164 1.9892,1.9892 0 0 1 0.51758,0.90625 1.9892,1.9892 0 0 0 -0.51758,-1.9062 1.9892,1.9892 0 0 0 -1.3926,-0.58203 z m 3.9492,2.4902 a 4,4 0 0 1 -0.26758,1.0293 4,4 0 0 1 -3.6953,2.4688 h -10.998 c -1.2e-5,0.0021 -0.002,0.0037 -0.002,0.0059 0,0.54361 0.43118,0.97785 0.9707,0.99414 h 10.029 a 4,4 0 0 0 3.6953,-2.4688 4,4 0 0 0 0.2793,-1.959 4,4 0 0 0 0,-0.0039 4,4 0 0 0 -0.01172,-0.06641 z m 4.0508,0.51562 a 1.9892,1.9892 0 0 0 -0.77539,0.15039 1.9892,1.9892 0 0 0 -1.2266,1.8379 h -1.877 a 4,4 0 0 0 -0.0293,0.11914 4,4 0 0 0 -0.05078,0.24219 4,4 0 0 0 -0.01953,0.15625 4,4 0 0 0 -0.02539,0.23437 4,4 0 0 0 -0.0098,0.24805 h 2.0117 a 1.9892,1.9892 0 0 1 0.0098,-0.1875 1.9892,1.9892 0 0 1 1.2168,-1.6504 1.9892,1.9892 0 0 1 2.168,0.43164 1.9892,1.9892 0 0 1 0.51758,0.90625 1.9892,1.9892 0 0 0 -0.51758,-1.9062 1.9892,1.9892 0 0 0 -1.3926,-0.58203 z m 3.9492,2.4902 a 4,4 0 0 1 -0.26758,1.0293 4,4 0 0 1 -3.6953,2.4688 v -0.0059 h -21.998 c -4.7e-5,0.0041 -0.002,0.0076 -0.002,0.01172 0,0.53322 0.41644,0.95654 0.94141,0.98828 h 13.059 V 35.9945 a 4,4 0 0 1 0.31254,0.01172 h 7.6875 v 0.0059 a 4,4 0 0 0 3.6953,-2.4688 4,4 0 0 0 0.2793,-1.959 4,4 0 0 0 0,-0.0039 4,4 0 0 0 -0.01172,-0.06641 z m -23.963,6.4922 c -1.1e-5,0.002 0,0.0039 0,0.0059 0,0.54361 0.43118,0.97785 0.9707,0.99414 h 11.029 a 1.9892,1.9892 0 0 1 1.8379,1.2266 1.9892,1.9892 0 0 1 0.08594,0.26172 1.9892,1.9892 0 0 0 -0.08594,-1.2617 1.9892,1.9892 0 0 0 -1.8379,-1.2266 h -11.998 c 0,1.33e-4 -0.002,-1.33e-4 -0.002,0 z m 15.963,2.5039 a 4,4 0 0 1 -1.1348,2.3125 4,4 0 0 1 -4.3594,0.86719 4,4 0 0 1 -2.332,-2.6836 h -0.13672 a 4,4 0 0 0 2.4688,3.6836 4,4 0 0 0 4.3594,-0.86719 4,4 0 0 0 1.0098,-1.7012 4,4 0 0 0 0.0918,-0.37891 4,4 0 0 0 0.002,-0.01172 4,4 0 0 0 0.05274,-0.38281 4,4 0 0 0 0.01367,-0.3125 4,4 0 0 0 -0.01758,-0.40039 4,4 0 0 0 -0.01758,-0.125 z"
       fill-opacity="0.22745"
       style="paint-order:normal" />
  </g>
</svg>
